<svg xmlns="http://www.w3.org/2000/svg" xmlns:serif="http://www.serif.com/" viewBox="0 0 125 125">
    <g id="github">
        <polyline id="git_shade_offset" points="12.03 93.71 3.53 85.52 3.57 30.6 52.83 1.54 93.54 22.59" style="fill: #bbbbbb; fill-opacityL 0.5;"/>
        <polyline id="git_shade_half" points="2.5 86.62 2.5 29.35 52.5 0.72 102.5 29.35" style="fill: #ffffff; fill-opacityL 0.5;"/>
        <path id="git_frame" d="M15.88,28,54.19,6.06a11.69,11.69,0,0,1,11.62,0L104.12,28A11.69,11.69,0,0,1,110,38.15V81.85A11.69,11.69,0,0,1,104.12,92L65.81,113.94a11.69,11.69,0,0,1-11.62,0L15.88,92A11.69,11.69,0,0,1,10,81.85V38.15A11.69,11.69,0,0,1,15.88,28Z" style="stroke:#ffffff;fill:none;stroke-miterlimit:10;stroke-width:5px" transform="translate(-7.5 -2.01)"/>
        <circle id="git_black_circle" cx="52.5" cy="58.49" r="30" style="fill:#000000"/>
        <path id="git_silhouette" d="M60,29.5c-16.57,0-30,13.77-30,30.76A30.71,30.71,0,0,0,50.52,89.45c1.5.28,2-.67,2-1.48s0-3.16,0-5.73c-8.35,1.86-10.11-3.63-10.11-3.63-1.36-3.56-3.33-4.5-3.33-4.5-2.72-1.91.21-1.87.21-1.87,3,.22,4.6,3.17,4.6,3.17,2.68,4.7,7,3.34,8.73,2.56a6.61,6.61,0,0,1,1.9-4.11c-6.66-.78-13.67-3.42-13.67-15.2a12.07,12.07,0,0,1,3.09-8.26,11.31,11.31,0,0,1,.29-8.14s2.52-.83,8.25,3.15a27.77,27.77,0,0,1,15,0c5.73-4,8.24-3.15,8.24-3.15a11.3,11.3,0,0,1,.29,8.14,12,12,0,0,1,3.09,8.26c0,11.81-7,14.42-13.7,15.18,1.08,1,2,2.83,2,5.7,0,4.12,0,7.43,0,8.44,0,.82.54,1.78,2.06,1.48A30.7,30.7,0,0,0,90,60.26C90,43.27,76.57,29.5,60,29.5Z" style="fill:#ffffff" transform="translate(-7.5 -2.01)"/>
        <path id="git_sucker_1" d="M41.36,73.66a.37.37,0,0,1-.51.09c-.22-.1-.34-.31-.27-.46s.3-.2.52-.1.34.31.27.46ZM41,73.38" style="fill:#ffffff" transform="translate(-7.5 -2.01)"/>
        <path id="git_sucker_2" d="M42.58,75.05c-.14.14-.42.07-.61-.14a.48.48,0,0,1-.09-.64c.15-.14.42-.07.62.14s.23.5.09.64Zm-.29-.31" style="fill:#ffffff" transform="translate(-7.5 -2.01)"/>
        <path id="git_sucker_3" d="M43.76,76.82c-.18.13-.48,0-.67-.27s-.18-.6,0-.73.48,0,.67.26a.55.55,0,0,1,0,.74Zm0,0" style="fill:#ffffff" transform="translate(-7.5 -2.01)"/>
        <path id="git_sucker_4" d="M45.38,78.54c-.16.19-.51.14-.77-.12a.6.6,0,0,1-.17-.79c.17-.19.52-.13.78.12s.34.6.16.79Zm0,0" style="fill:#ffffff" transform="translate(-7.5 -2.01)"/>
        <path id="git_sucker_5" d="M47.62,79.53c-.07.24-.41.35-.75.25s-.56-.39-.49-.63.41-.36.75-.25.56.39.49.63Zm0,0" style="fill:#ffffff" transform="translate(-7.5 -2.01)"/>
        <path id="git_sucker_6" d="M50.07,79.71c0,.25-.28.46-.64.47s-.65-.2-.65-.45.28-.46.64-.47.65.2.65.45Zm0,0" style="fill:#ffffff" transform="translate(-7.5 -2.01)"/>
        <path id="git_sucker_7" d="M52.36,79.32c0,.25-.21.5-.56.57s-.67-.09-.72-.33.21-.51.56-.57.67.09.72.34Zm0,0" style="fill:#ffffff" transform="translate(-7.5 -2.01)"/>
    </g>
</svg>
