<svg xmlns="http://www.w3.org/2000/svg" xmlns:serif="http://www.serif.com/" viewBox="0 0 125 125">
    <g id="portfolio">
        <polyline id="portfolio_shade_offset" points="12.03 93.71 3.53 85.52 3.57 30.6 52.83 1.54 93.54 22.59" style="fill:#607080;fill-opacity:0.5"/>
        <polyline id="portfolio_shade_half" points="2.5 86.62 2.5 29.35 52.5 0.72 102.5 29.35" style="fill:#607080;fill-opacity:0.5"/>
        <path id="portfolio_frame" d="M15.88,28,54.19,6.06a11.69,11.69,0,0,1,11.62,0L104.12,28A11.69,11.69,0,0,1,110,38.15V81.85A11.69,11.69,0,0,1,104.12,92L65.81,113.94a11.69,11.69,0,0,1-11.62,0L15.88,92A11.69,11.69,0,0,1,10,81.85V38.15A11.69,11.69,0,0,1,15.88,28Z" style="stroke:#353E47;fill:none;stroke-miterlimit:10;stroke-width:5px" transform="translate(-7.5 -2.01)"/>
        <path d="M9 12H1v6a2 2 0 0 0 2 2h14a2 2 0 0 0 2-2v-6h-8v2H9v-2zm0-1H0V5c0-1.1.9-2 2-2h4V2a2 2 0 0 1 2-2h4a2 2 0 0 1 2 2v1h4a2 2 0 0 1 2 2v6h-9V9H9v2zm3-8V2H8v1h4z" style="fill:#ACB5BF" transform="translate(22.5 25) scale(3)"/>
    </g>
</svg>
