<svg xmlns="http://www.w3.org/2000/svg" xmlns:serif="http://www.serif.com/"  viewBox="0 0 125 125">
    <g id="twitter">
        <polyline id="twitter_shade_half" points="2.5 86.62 2.5 29.35 52.5 0.72 102.5 29.35" style="fill:#6ecbef;fill-opacity:0.5"/>
        <polyline id="twitter_shade_offset" points="12.03 93.71 3.53 85.52 3.57 30.6 52.83 1.54 93.54 22.59" style="fill:#6ecbef;fill-opacity:0.5"/>
        <path id="twitter_logo" d="M84.87,44.72a20.14,20.14,0,0,1-5.81,1.59,10.13,10.13,0,0,0,4.44-5.59,20.23,20.23,0,0,1-6.42,2.45,10.12,10.12,0,0,0-17.22,9.22A28.69,28.69,0,0,1,39,41.83a10.12,10.12,0,0,0,3.13,13.49,10.07,10.07,0,0,1-4.58-1.26s0,.08,0,.13a10.11,10.11,0,0,0,8.11,9.91,10.13,10.13,0,0,1-4.56.17,10.12,10.12,0,0,0,9.44,7A20.28,20.28,0,0,1,38,75.62a20.7,20.7,0,0,1-2.41-.14A28.61,28.61,0,0,0,51.1,80c18.59,0,28.76-15.4,28.76-28.76,0-.44,0-.87,0-1.31A20.52,20.52,0,0,0,84.87,44.72Z" style="fill:#ffffff" transform="translate(-7.5 -2.01)"/>
        <path id="twitter_frame" d="M15.88,28,54.19,6.06a11.69,11.69,0,0,1,11.62,0L104.12,28A11.69,11.69,0,0,1,110,38.15V81.85A11.69,11.69,0,0,1,104.12,92L65.81,113.94a11.69,11.69,0,0,1-11.62,0L15.88,92A11.69,11.69,0,0,1,10,81.85V38.15A11.69,11.69,0,0,1,15.88,28Z" style="stroke:#6ecbef;fill:none;stroke-miterlimit:10;stroke-width:5px" transform="translate(-7.5 -2.01)"/>
    </g>
</svg>
